<?xml version="1.0" encoding="UTF-8" standalone="no"?>
<svg
   viewBox="0 0 50 50"
   width="150px"
   height="150px"
   version="1.1"
   id="svg1"
   sodipodi:docname="flask-icon-icons8.svg"
   inkscape:version="1.3.2 (091e20e, 2023-11-25, custom)"
   xmlns:inkscape="http://www.inkscape.org/namespaces/inkscape"
   xmlns:sodipodi="http://sodipodi.sourceforge.net/DTD/sodipodi-0.dtd"
   xmlns="http://www.w3.org/2000/svg"
   xmlns:svg="http://www.w3.org/2000/svg">
  <defs
     id="defs1" />
  <sodipodi:namedview
     id="namedview1"
     pagecolor="#ffffff"
     bordercolor="#000000"
     borderopacity="0.25"
     inkscape:showpageshadow="2"
     inkscape:pageopacity="0.0"
     inkscape:pagecheckerboard="0"
     inkscape:deskcolor="#d1d1d1"
     inkscape:zoom="2.1366667"
     inkscape:cx="104.60218"
     inkscape:cy="82.605304"
     inkscape:window-width="1600"
     inkscape:window-height="837"
     inkscape:window-x="-8"
     inkscape:window-y="-8"
     inkscape:window-maximized="1"
     inkscape:current-layer="svg1" />
  <path
     d="M 2.609375 14.628906 C 2.194125 14.663781 1.8316094 14.997641 2.3496094 15.556641 C 3.3446094 16.118641 1.3683125 16.532203 1.9453125 16.908203 C 2.1293125 17.304203 1.9305781 17.745406 1.3925781 17.816406 C 0.60457812 17.884406 0.67926562 18.960484 1.4472656 18.396484 C 2.3042656 18.124484 1.5954062 18.504031 1.1914062 18.582031 C 0.28440625 18.846031 -0.33364063 19.752078 0.19335938 20.580078 C 0.69735938 21.720078 0.83165625 22.991734 1.2226562 24.177734 C 1.8696563 26.001734 2.8149688 27.737328 4.0429688 29.236328 C 4.6259687 30.086328 5.4782969 30.690313 6.2792969 31.320312 C 7.0672969 31.831312 7.9447969 32.342516 8.8417969 32.603516 C 10.434797 33.186516 12.144359 33.241047 13.818359 33.373047 C 14.838359 33.371047 15.862141 33.299141 16.869141 33.119141 C 17.775141 33.217141 18.427094 32.442563 19.246094 32.851562 C 19.742094 32.411563 20.464938 32.603203 20.960938 32.283203 C 21.327938 31.035203 19.700547 32.035781 19.185547 31.425781 C 18.625547 32.083781 18.155562 31.353594 17.476562 31.558594 C 16.320563 31.616594 17.564156 31.040719 17.535156 30.511719 C 16.922156 30.041719 16.229891 31.157031 15.837891 31.457031 C 14.869891 31.282031 13.911437 31.006891 13.023438 30.587891 C 12.011437 30.060891 11.018156 29.433922 10.285156 28.544922 C 9.5181563 27.636922 8.6703125 26.718734 8.3203125 25.552734 C 7.5803125 23.627734 7.6284531 21.543484 7.4394531 19.521484 C 7.5094531 18.152484 8.9550781 19.668828 9.5800781 19.173828 C 9.3660781 18.463828 8.2257031 18.239078 7.5957031 17.955078 C 6.9877031 17.913078 6.7661406 17.368219 6.1191406 17.324219 C 6.1501406 16.564219 4.9303281 16.982406 4.4863281 16.441406 C 4.9233281 15.313406 3.0385469 16.468187 3.1855469 15.492188 C 3.4925469 14.857687 3.024625 14.594031 2.609375 14.628906 z M 2.6152344 14.724609 C 2.7137969 14.700016 2.8271562 14.719797 2.9414062 14.810547 C 3.4834062 15.540547 1.9445156 14.726828 2.4785156 15.423828 C 2.1537656 15.271578 2.3195469 14.798391 2.6152344 14.724609 z M 41.914062 15.085938 C 41.847063 15.085938 41.671672 15.177281 41.388672 15.363281 C 41.038672 15.589281 40.669203 15.767484 40.283203 15.896484 C 40.041203 15.979484 39.921875 16.095141 39.921875 16.244141 C 39.921875 16.347141 40.005781 16.427375 40.175781 16.484375 C 40.536781 16.603375 40.773719 16.767516 40.886719 16.978516 C 40.969719 17.143516 41.011719 17.436375 41.011719 17.859375 L 41.011719 24.615234 C 41.011719 25.207234 40.868938 25.539328 40.585938 25.611328 C 40.270937 25.693328 40.113281 25.814609 40.113281 25.974609 C 40.113281 26.041609 40.118906 26.094859 40.128906 26.130859 C 40.153906 26.233859 40.321859 26.272094 40.630859 26.246094 C 41.857859 26.148094 42.729141 26.123922 43.244141 26.169922 C 43.409141 26.185922 43.509828 26.178391 43.548828 26.150391 C 43.587828 26.122391 43.607422 26.048687 43.607422 25.929688 C 43.607422 25.779687 43.486141 25.689203 43.244141 25.658203 C 42.852141 25.617203 42.602141 25.560281 42.494141 25.488281 C 42.340141 25.385281 42.256094 25.169844 42.246094 24.839844 C 42.236094 24.509844 42.232422 24.257031 42.232422 24.082031 C 42.232422 23.835031 42.353703 23.643766 42.595703 23.509766 C 42.811703 23.354766 42.962781 23.277344 43.050781 23.277344 C 43.122781 23.277344 43.182516 23.320344 43.228516 23.402344 C 43.795516 24.361344 44.486781 25.278297 45.300781 26.154297 C 45.423781 26.283297 45.630922 26.318719 45.919922 26.261719 C 46.502922 26.215719 46.972984 26.190547 47.333984 26.185547 C 47.575984 26.175547 47.697266 26.078437 47.697266 25.898438 C 47.697266 25.754437 47.668328 25.665812 47.611328 25.632812 C 47.554328 25.599812 47.408875 25.582031 47.171875 25.582031 C 46.852875 25.582031 46.508578 25.425328 46.142578 25.111328 C 45.570578 24.612328 44.962359 23.871578 44.318359 22.892578 C 44.143359 22.619578 44.056641 22.447 44.056641 22.375 C 44.056641 22.329 44.076188 22.290766 44.117188 22.259766 C 44.673188 21.703766 45.1975 21.313797 45.6875 21.091797 C 46.0385 20.926797 46.411594 20.835313 46.808594 20.820312 C 47.061594 20.805312 47.1875 20.710156 47.1875 20.535156 C 47.1875 20.349156 47.107266 20.253047 46.947266 20.248047 C 46.458266 20.248047 45.965703 20.245234 45.470703 20.240234 C 44.759703 20.235234 44.218656 20.20825 43.847656 20.15625 C 43.682656 20.13025 43.591172 20.208672 43.576172 20.388672 C 43.566172 20.568672 43.652031 20.668453 43.832031 20.689453 C 44.249031 20.746453 44.457031 20.843422 44.457031 20.982422 C 44.457031 21.059422 44.395484 21.163969 44.271484 21.292969 C 43.647484 21.833969 43.123312 22.270469 42.695312 22.605469 C 42.535313 22.739469 42.416844 22.806641 42.339844 22.806641 C 42.267844 22.806641 42.230469 22.739469 42.230469 22.605469 L 42.216797 17.767578 C 42.216797 17.133578 42.219609 16.627953 42.224609 16.251953 C 42.229609 15.705953 42.232422 15.450328 42.232422 15.486328 C 42.232422 15.218328 42.125062 15.085938 41.914062 15.085938 z M 24.267578 15.140625 C 24.185578 15.140625 23.988688 15.231969 23.679688 15.417969 C 23.303688 15.654969 22.939844 15.830359 22.589844 15.943359 C 22.357844 16.020359 22.242188 16.137969 22.242188 16.292969 C 22.242187 16.395969 22.322422 16.47425 22.482422 16.53125 C 22.786422 16.63925 22.998141 16.792281 23.119141 16.988281 C 23.240141 17.184281 23.302734 17.491203 23.302734 17.908203 L 23.302734 24.902344 C 23.302734 25.324344 23.161859 25.579062 22.880859 25.664062 C 22.599859 25.749063 22.460938 25.852563 22.460938 25.976562 C 22.460938 26.115562 22.484203 26.201422 22.533203 26.232422 C 22.582203 26.262422 22.712828 26.267094 22.923828 26.246094 C 23.975828 26.158094 24.855406 26.149797 25.566406 26.216797 C 25.798406 26.241797 25.914062 26.151312 25.914062 25.945312 C 25.914062 25.796312 25.799406 25.708594 25.566406 25.683594 C 25.190406 25.637594 24.924531 25.542391 24.769531 25.400391 C 24.614531 25.258391 24.537109 25.030797 24.537109 24.716797 L 24.507812 17.814453 C 24.501812 17.320453 24.506484 16.816641 24.521484 16.306641 C 24.542484 15.770641 24.552734 15.512203 24.552734 15.533203 C 24.552734 15.270203 24.458578 15.140625 24.267578 15.140625 z M 13.988281 15.953125 C 13.931281 15.963125 13.891234 16.017234 13.865234 16.115234 C 13.814234 16.275234 13.891656 16.401141 14.097656 16.494141 C 14.426656 16.644141 14.652437 16.811141 14.773438 16.994141 C 14.894438 17.177141 14.955078 17.439297 14.955078 17.779297 L 14.955078 24.396484 C 14.955078 25.226484 14.702266 25.669563 14.197266 25.726562 C 13.976266 25.747563 13.865234 25.823031 13.865234 25.957031 C 13.865234 26.169031 13.975266 26.259516 14.197266 26.228516 C 14.990266 26.120516 15.99775 26.116844 17.21875 26.214844 C 17.64075 26.250844 17.867438 26.183672 17.898438 26.013672 C 17.929437 25.818672 17.818406 25.707641 17.566406 25.681641 C 17.072406 25.619641 16.750563 25.549656 16.601562 25.472656 C 16.410562 25.379656 16.314453 25.203312 16.314453 24.945312 L 16.314453 21.46875 C 16.314453 21.40275 16.360125 21.367188 16.453125 21.367188 C 17.272125 21.367187 17.865516 21.389594 18.228516 21.433594 C 18.591516 21.477594 18.840609 21.822797 18.974609 22.466797 C 19.011609 22.636797 19.100141 22.712266 19.244141 22.697266 C 19.419141 22.687266 19.505 22.616422 19.5 22.482422 C 19.448 21.359422 19.494672 20.447094 19.638672 19.746094 C 19.664672 19.622094 19.589063 19.541859 19.414062 19.505859 C 19.208063 19.459859 19.088734 19.540094 19.052734 19.746094 C 18.995734 20.123094 18.937906 20.355313 18.878906 20.445312 C 18.819906 20.535312 18.703203 20.590328 18.533203 20.611328 C 17.662203 20.668328 16.998062 20.700078 16.539062 20.705078 C 16.390062 20.710078 16.316406 20.654156 16.316406 20.535156 L 16.316406 17.033203 C 16.316406 16.914203 16.340578 16.836781 16.392578 16.800781 C 16.475578 16.743781 16.651922 16.716797 16.919922 16.716797 C 18.089922 16.716797 18.819281 16.739156 19.113281 16.785156 C 19.386281 16.821156 19.606484 16.928516 19.771484 17.103516 C 19.911484 17.252516 20.057891 17.514625 20.212891 17.890625 C 20.268891 18.029625 20.369672 18.099609 20.513672 18.099609 C 20.657672 18.099609 20.728516 18.019375 20.728516 17.859375 C 20.748516 17.045375 20.802625 16.466094 20.890625 16.121094 C 20.895625 16.100094 20.898391 16.080687 20.900391 16.054688 C 20.900391 15.977687 20.727812 15.94775 20.382812 15.96875 C 19.346812 16.03075 18.117313 16.0625 16.695312 16.0625 C 15.489312 16.0625 14.723437 16.036375 14.398438 15.984375 C 14.176438 15.948375 14.040281 15.938125 13.988281 15.953125 z M 3.7910156 16.136719 C 3.9290156 16.165969 3.9766563 16.248328 3.5976562 16.298828 L 3.4453125 16.291016 C 3.4253125 16.131516 3.6530156 16.107469 3.7910156 16.136719 z M 3.6386719 16.669922 C 3.9126719 16.789922 4.4744063 16.845484 4.5664062 17.146484 C 4.0054062 16.854484 4.6780313 17.498328 4.2070312 17.486328 C 3.9530312 17.489328 3.4826719 16.943922 3.6386719 16.669922 z M 3.4980469 17.123047 C 4.1330469 17.606047 3.1441875 17.122781 2.7421875 17.425781 C 2.1091875 17.489781 3.4360469 17.069047 3.4980469 17.123047 z M 5.1757812 17.412109 C 5.2568125 17.434484 5.2567969 17.511125 5.1230469 17.671875 C 5.6150469 18.259875 5.2334375 18.061531 4.8984375 17.644531 C 5.1924375 17.847531 4.9656719 18.724094 4.5136719 18.121094 C 4.1936719 17.525094 3.9910781 17.927937 4.3300781 18.335938 C 3.9970781 17.708938 3.033125 17.976797 2.328125 18.216797 C 1.873125 18.166797 3.5105 17.828047 3.6875 17.748047 C 3.96125 17.753297 4.9326875 17.344984 5.1757812 17.412109 z M 7.1484375 18.076172 C 7.3495469 18.073578 7.5478906 18.081156 7.7441406 18.097656 C 8.0591406 18.464656 7.5056875 19.085953 6.9296875 19.126953 C 6.2296875 19.388953 5.5171875 19.453063 4.8671875 19.539062 C 4.0331875 19.434063 3.4343125 20.184297 2.5703125 20.279297 C 2.8003125 19.853297 2.3813594 20.132328 1.9433594 20.111328 C 2.1663594 20.971328 0.40035938 19.882781 1.4433594 19.675781 C 0.66135938 19.397781 0.65042188 20.2195 0.73242188 20.6875 L 0.6796875 20.6875 C -0.0363125 19.7655 0.76001562 19.389484 1.6660156 19.271484 C 1.4940156 19.696484 1.9134062 19.833156 2.3164062 19.910156 C 2.9694063 19.730156 1.8868594 19.614359 2.3808594 19.443359 C 2.6518594 19.393359 1.5168906 19.171922 2.4628906 19.044922 C 3.4328906 18.881922 4.3055781 18.500781 5.2675781 18.300781 C 5.9185781 18.171781 6.5451094 18.083953 7.1484375 18.076172 z M 6.9335938 18.294922 C 6.8479687 18.268297 6.648875 18.321844 6.546875 18.589844 C 6.620875 18.758844 6.6575781 18.540422 6.6425781 18.482422 C 6.9920781 18.428922 7.0192188 18.321547 6.9335938 18.294922 z M 4.9160156 18.654297 C 4.6361406 18.641422 4.177625 18.701984 4.015625 18.896484 C 4.221625 18.990484 4.4481406 18.636375 4.7441406 18.859375 C 5.2966406 18.754375 5.1958906 18.667172 4.9160156 18.654297 z M 8.9121094 18.705078 C 9.052002 18.682236 9.4851562 18.843984 9.3320312 19.115234 C 9.2270312 19.145234 9.2449687 18.986937 9.1679688 18.960938 C 8.8507188 18.799312 8.8281738 18.718783 8.9121094 18.705078 z M 3.4863281 19.080078 C 3.4131875 19.08 3.3546563 19.113125 3.3476562 19.203125 L 3.4882812 19.332031 C 4.0500312 19.377781 3.70575 19.080313 3.4863281 19.080078 z M 3.171875 19.337891 C 3.0675937 19.322656 2.9709687 19.380422 2.9179688 19.576172 C 3.0159688 19.552172 3.171625 19.608688 3.265625 19.679688 C 3.858125 20.084688 3.4847187 19.383594 3.171875 19.337891 z M 6.9824219 19.433594 C 7.5024453 19.33182 7.3507187 20.677922 7.1835938 21.091797 C 7.4985937 20.876797 7.4379375 22.090969 7.3359375 22.542969 C 7.5079375 22.311969 7.5787188 22.91675 7.3867188 23.34375 C 7.4027188 23.27375 7.8028125 23.21275 7.5078125 23.71875 C 7.2828125 23.22275 7.1850781 24.727734 7.3300781 24.052734 C 7.7270781 23.414734 7.6231406 24.018781 7.7441406 24.300781 C 7.8221406 24.885781 8.0831094 25.425359 8.1621094 25.943359 C 8.5291094 26.313359 8.0058125 26.0625 8.0078125 26.5625 C 8.1268125 26.4175 8.612375 26.766156 8.609375 27.285156 C 8.649375 26.462156 8.6966563 27.092641 9.0976562 27.306641 C 9.4326562 27.846641 9.6835938 28.351875 10.183594 28.796875 C 10.573594 29.247875 10.159125 28.931031 10.328125 29.207031 C 10.742125 29.941031 11.70125 30.366594 12.53125 30.558594 C 12.89525 31.032594 13.441641 31.504062 14.181641 31.289062 C 13.555641 31.675063 15.944719 31.780047 15.136719 31.998047 C 14.716719 32.226047 14.318203 31.851094 13.908203 31.871094 C 13.338203 31.675094 12.437172 31.074422 11.826172 31.482422 C 10.981172 32.011422 12.259219 30.892578 11.574219 31.392578 C 10.880219 32.225578 11.102781 30.874297 10.425781 31.279297 C 10.386781 31.150297 9.824 31.114719 10.25 30.886719 C 9.868 30.862719 10.106141 30.838203 10.244141 30.533203 C 10.080141 30.499203 9.1685469 30.531422 8.8105469 30.232422 C 8.3885469 29.683422 8.8842188 29.906328 9.3242188 29.986328 C 8.6182188 30.110328 9.5670625 30.516016 10.039062 30.291016 C 9.8270625 30.201016 9.5844375 29.742797 9.0234375 29.341797 C 8.2394375 28.869797 7.59425 28.644578 6.78125 28.267578 C 5.90125 27.745578 6.9782031 28.082422 7.2832031 28.357422 C 8.1612031 28.744422 7.8156406 27.814266 7.3066406 27.572266 C 6.7486406 27.595266 6.6052031 26.954234 6.1582031 26.990234 C 6.8642031 27.103234 7.3543594 26.807656 6.5683594 26.097656 C 5.8213594 25.225656 6.8803125 26.755594 6.4453125 26.558594 C 6.2473125 26.297594 6.3956719 25.922109 5.7636719 25.787109 C 5.7566719 26.028109 5.6770625 26.401531 5.5390625 25.894531 C 5.3630625 25.924531 5.1615781 26.117703 5.0175781 25.595703 C 5.1535781 25.002703 4.4303594 24.867281 4.3183594 24.488281 C 4.9433594 24.887281 5.2262031 24.572719 4.7832031 24.136719 C 4.4782031 23.603719 4.435625 24.021703 4.265625 24.095703 C 3.652625 24.721703 4.2095 23.015812 3.9375 23.507812 C 3.6635 23.499813 3.8211719 23.809359 3.8261719 24.193359 C 2.9301719 23.971359 4.0437344 24.664875 4.3027344 25.046875 C 3.8937344 24.618875 3.9630938 25.367719 3.6210938 25.011719 C 3.5050937 24.696719 3.4889219 24.199328 2.9199219 24.111328 C 3.5669219 23.887328 2.5350938 23.432203 2.6210938 23.408203 C 2.9910937 23.071203 3.038375 22.608031 3.484375 23.332031 C 2.919375 23.286031 3.4684219 24.264656 3.6074219 23.972656 C 3.5854219 23.471656 3.838375 22.945844 2.984375 22.714844 C 2.733375 23.052844 2.3007344 22.052672 2.8027344 22.263672 C 2.7367344 21.599672 3.5813437 21.991125 3.5273438 21.703125 C 3.9633438 21.512125 2.9995312 20.895437 3.5195312 20.648438 C 3.9175312 20.890438 4.9498594 20.267641 4.2558594 20.181641 C 4.6898594 20.177641 5.0379844 20.367734 5.0839844 19.927734 C 5.4349844 20.003734 6.3844844 20.306078 5.5214844 19.830078 C 5.7974844 19.693078 6.3807969 19.577266 6.7167969 19.572266 C 6.8204219 19.491641 6.9081328 19.448133 6.9824219 19.433594 z M 36.621094 19.992188 C 35.957094 19.992188 35.426297 20.140453 35.029297 20.439453 C 34.601297 20.749453 34.388672 21.181281 34.388672 21.738281 C 34.388672 22.191281 34.525828 22.552312 34.798828 22.820312 C 35.050828 23.072312 35.552687 23.366172 36.304688 23.701172 C 36.824688 23.928172 37.175469 24.126875 37.355469 24.296875 C 37.520469 24.446875 37.603516 24.631516 37.603516 24.853516 C 37.603516 25.358516 37.240672 25.611328 36.513672 25.611328 C 35.652672 25.611328 35.028578 25.274609 34.642578 24.599609 C 34.554578 24.450609 34.448219 24.383437 34.324219 24.398438 C 34.200219 24.408438 34.138672 24.549266 34.138672 24.822266 C 34.138672 25.456266 34.160172 25.810813 34.201172 25.882812 C 34.268172 25.959812 34.510734 26.043719 34.927734 26.136719 C 35.411734 26.239719 35.896859 26.292969 36.380859 26.292969 C 37.107859 26.292969 37.681562 26.130594 38.101562 25.808594 C 38.521563 25.486594 38.730469 25.053812 38.730469 24.507812 C 38.730469 24.013813 38.576531 23.619266 38.269531 23.322266 C 38.032531 23.096266 37.583828 22.839641 36.923828 22.556641 C 36.294828 22.283641 35.896563 22.082125 35.726562 21.953125 C 35.535562 21.803125 35.439453 21.604563 35.439453 21.351562 C 35.439453 20.898562 35.792047 20.671875 36.498047 20.671875 C 37.122047 20.671875 37.637922 21.002969 38.044922 21.667969 C 38.101922 21.760969 38.214766 21.789906 38.384766 21.753906 C 38.543766 21.712906 38.616563 21.658797 38.601562 21.591797 C 38.472563 21.045797 38.386703 20.628844 38.345703 20.339844 C 38.329703 20.241844 38.136625 20.158797 37.765625 20.091797 C 37.420625 20.025797 37.038094 19.992188 36.621094 19.992188 z M 30.1875 20.023438 C 29.5795 20.023438 28.947109 20.197969 28.287109 20.542969 C 27.658109 20.872969 27.34375 21.161203 27.34375 21.408203 C 27.34375 21.804203 27.555516 21.982406 27.978516 21.941406 C 28.349516 21.910406 28.634031 21.695828 28.832031 21.298828 C 29.030031 20.901828 29.240891 20.703125 29.462891 20.703125 C 30.240891 20.703125 30.613031 21.127656 30.582031 21.972656 L 30.568359 22.466797 C 30.563359 22.682797 30.385156 22.825578 30.035156 22.892578 C 27.994156 23.279578 26.974609 23.917594 26.974609 24.808594 C 26.974609 25.277594 27.1285 25.648875 27.4375 25.921875 C 27.7205 26.168875 28.073094 26.292969 28.496094 26.292969 C 28.944094 26.292969 29.390984 26.187562 29.833984 25.976562 C 30.276984 25.765563 30.522359 25.658203 30.568359 25.658203 C 30.630359 25.658203 30.737578 25.757125 30.892578 25.953125 C 31.046578 26.149125 31.224781 26.246094 31.425781 26.246094 C 31.662781 26.246094 31.979047 26.136969 32.373047 25.917969 C 32.767047 25.698969 32.964844 25.535734 32.964844 25.427734 C 32.964844 25.226734 32.889281 25.126 32.738281 25.125 C 32.712281 25.125 32.620937 25.138063 32.460938 25.164062 C 32.300938 25.190062 32.193719 25.203125 32.136719 25.203125 C 31.848719 25.203125 31.705938 25.036172 31.710938 24.701172 L 31.742188 21.515625 C 31.752188 20.520625 31.2335 20.023438 30.1875 20.023438 z M 6.9257812 20.259766 C 6.7942969 20.297453 6.5887187 20.996344 6.7304688 21.246094 C 7.0424688 21.743094 7.3546563 20.024563 7.0976562 20.601562 C 6.9596562 21.336562 6.8185781 21.029422 7.0175781 20.482422 C 7.0055781 20.306672 6.9696094 20.247203 6.9257812 20.259766 z M 2.5351562 20.910156 C 2.5848594 20.907924 2.6721406 20.911906 2.8066406 20.925781 C 3.5006406 20.901781 3.2778125 21.310891 2.8828125 21.337891 C 2.8738125 21.363891 2.5209687 21.25325 2.6679688 21.15625 C 3.6199688 21.277 2.1872344 20.925783 2.5351562 20.910156 z M 4.2832031 21.152344 C 4.3410781 21.282094 4.4392344 21.526266 4.3652344 21.634766 C 4.5602344 21.827766 5.2264062 22.171219 4.6914062 21.699219 C 5.0324062 21.631219 4.6463594 21.523328 4.4433594 21.361328 C 4.2078594 21.007828 4.2253281 21.022594 4.2832031 21.152344 z M 2.0195312 21.169922 C 2.1770313 21.163797 2.3387031 21.244641 2.0332031 21.431641 C 1.7087031 21.269141 1.8620313 21.176047 2.0195312 21.169922 z M 6.4589844 21.625 C 6.448875 21.610625 6.4435781 21.623359 6.4550781 21.693359 C 6.5728281 21.957359 6.4893125 21.668125 6.4589844 21.625 z M 4.09375 21.888672 C 4.18575 22.021672 4.4347812 21.962797 4.5507812 22.091797 C 5.5987812 22.525797 4.45675 21.810672 4.09375 21.888672 z M 3.9296875 21.970703 C 3.8781301 21.982421 3.8873906 22.050922 4.0019531 22.208984 C 4.0739531 22.371984 4.2475781 22.385828 4.3925781 22.423828 C 5.5170781 22.942203 4.1531028 21.919925 3.9296875 21.970703 z M 1.9941406 22.058594 C 2.1650156 22.086469 2.3705312 22.178578 2.1445312 22.267578 L 2.0527344 22.232422 C 1.6872344 22.065922 1.8232656 22.030719 1.9941406 22.058594 z M 3.5839844 22.195312 C 3.5327813 22.197984 3.5767031 22.274828 3.8144531 22.486328 L 3.96875 22.644531 C 4.74875 22.858281 3.7375937 22.187297 3.5839844 22.195312 z M 3.4785156 22.404297 C 3.43825 22.403031 3.8000625 22.789953 3.6328125 22.783203 C 3.0538125 22.360203 3.2901875 22.659375 3.6171875 22.984375 C 3.9721875 23.511375 4.2655 22.670453 3.6875 22.564453 C 3.55 22.448953 3.4919375 22.404719 3.4785156 22.404297 z M 5.9355469 22.955078 C 5.9281875 22.979219 5.9269063 23.060781 5.9414062 23.238281 C 6.0381563 23.326031 5.957625 22.882656 5.9355469 22.955078 z M 6.4472656 23 C 6.3225312 23.00075 6.2288594 23.885063 6.5371094 24.070312 C 6.6641094 24.435312 6.7997031 24.285094 6.8457031 23.871094 C 6.5477031 23.877094 6.9683594 23.222562 6.5683594 23.351562 C 6.5333594 23.096812 6.4888438 22.99975 6.4472656 23 z M 7.3085938 23.019531 C 7.2862187 22.969906 7.2323906 23.078406 7.2128906 23.441406 L 7.2128906 23.544922 C 7.3208906 23.276422 7.3309688 23.069156 7.3085938 23.019531 z M 1.46875 23.048828 C 1.5477813 23.029797 1.99825 23.942109 1.9375 24.193359 C 1.6615 24.097359 1.674875 23.6655 1.546875 23.4375 C 1.458125 23.16525 1.4424062 23.055172 1.46875 23.048828 z M 4.7597656 23.09375 C 4.6867656 23.29675 4.9147344 23.962453 5.0527344 24.189453 C 5.4047344 24.730453 5.2468125 23.893594 5.6328125 24.433594 C 5.4208125 23.959594 5.7325 24.217625 5.6875 24.015625 C 5.5895 23.811625 4.6402656 22.731875 5.0722656 23.546875 C 5.4632656 24.518875 4.8267656 23.42475 4.7597656 23.09375 z M 1.2832031 23.251953 C 1.388877 23.320068 1.6721094 23.780859 1.7246094 24.037109 C 2.1696094 24.573109 1.9940781 24.868391 2.4550781 25.525391 C 1.8620781 25.151391 1.7500469 24.258641 1.3730469 23.681641 C 1.2189219 23.311516 1.2197988 23.211084 1.2832031 23.251953 z M 30.371094 23.373047 C 30.421969 23.376922 30.462141 23.389656 30.494141 23.410156 C 30.559141 23.451156 30.588984 23.535062 30.583984 23.664062 L 30.568359 24.933594 C 30.568359 25.093594 30.408844 25.23075 30.089844 25.34375 C 29.816844 25.44175 29.550969 25.490234 29.292969 25.490234 C 28.648969 25.490234 28.326172 25.194562 28.326172 24.601562 C 28.326172 24.013563 28.947453 23.608719 30.189453 23.386719 C 30.258953 23.373719 30.320219 23.369172 30.371094 23.373047 z M 4.5566406 24.931641 C 4.7951875 25.006508 4.6510156 25.786703 5.0097656 25.892578 C 5.8107656 26.937578 4.4549531 25.923266 4.0019531 25.822266 C 4.0599531 25.819266 3.5998281 25.691484 3.7988281 25.646484 C 3.6538281 25.497484 3.3293125 24.956359 4.0703125 25.318359 C 4.6593125 25.613359 4.7087344 25.414313 4.4277344 24.945312 C 4.4799844 24.923188 4.5225625 24.920945 4.5566406 24.931641 z M 1.8535156 25.083984 C 1.8733438 24.984234 2.2812187 25.640313 2.3554688 25.914062 C 2.5794687 26.627062 3.2805625 27.037766 3.3515625 27.509766 C 4.1285625 27.957766 3.7298125 28.688531 4.3828125 28.894531 C 4.6728125 28.747531 4.7013594 29.774547 5.3183594 29.560547 C 4.9753594 29.721547 5.4627656 29.911938 5.6347656 30.210938 C 6.0237656 30.157937 6.8763438 31.067906 6.0273438 30.753906 C 5.6693438 30.677906 5.424875 30.3055 5.171875 30.0625 C 4.420875 29.5855 3.9334844 28.787437 3.5214844 28.023438 C 2.9904844 27.220438 2.3512812 26.417516 1.9882812 25.478516 C 1.8817813 25.234766 1.8469062 25.117234 1.8535156 25.083984 z M 7.8203125 25.6875 C 7.7807266 25.707779 7.7786563 25.826438 7.8945312 26.085938 L 7.9628906 26.197266 C 8.0572656 25.890391 7.8862891 25.653701 7.8203125 25.6875 z M 5.1191406 26.605469 C 5.3401406 26.653594 5.6726406 26.772328 5.8066406 26.798828 C 5.8436406 26.957828 5.0491406 26.933141 5.7441406 27.244141 C 5.3391406 27.233141 5.2169219 27.202641 5.7949219 27.556641 C 5.5679219 27.738641 6.2525781 27.88325 6.0175781 28.15625 C 6.7145781 28.70025 5.89175 28.294266 5.59375 28.072266 C 5.41775 27.950266 4.7005 27.707828 4.8125 27.548828 C 5.6585 27.992828 5.0272969 27.529375 4.6542969 27.234375 C 5.3362969 27.401375 4.1078125 26.72925 4.7578125 26.90625 C 4.9508125 26.95325 4.4655625 26.508031 5.1015625 26.832031 C 4.7885625 26.579031 4.8981406 26.557344 5.1191406 26.605469 z M 9.3613281 28.310547 C 9.2741875 28.279797 9.3604375 28.617062 9.5546875 28.820312 C 9.9686875 29.313312 9.6537656 28.540422 9.5097656 28.482422 C 9.4397656 28.372172 9.390375 28.320797 9.3613281 28.310547 z M 5.7089844 28.794922 C 5.9394844 28.797422 6.3163281 28.901391 6.5488281 29.025391 C 7.5688281 29.252391 6.3318281 29.525891 5.9238281 29.212891 L 5.7519531 29.175781 C 5.3954531 28.892781 5.4784844 28.792422 5.7089844 28.794922 z M 6.9277344 28.902344 C 7.0125684 28.884238 7.398125 29.042813 7.5625 29.195312 C 8.0515 29.261313 8.0536719 29.484703 7.5136719 29.345703 C 7.4176719 29.286703 7.2628906 29.290016 7.2128906 29.166016 C 6.9346406 28.988266 6.876834 28.913207 6.9277344 28.902344 z M 7.578125 28.910156 C 7.732375 28.907531 7.9849531 28.951359 8.0644531 29.068359 C 9.1354531 29.240359 7.9966875 29.315203 7.6796875 29.033203 C 7.3681875 28.961703 7.423875 28.912781 7.578125 28.910156 z M 7.578125 29.513672 C 7.6939063 29.488078 8.45 29.800219 7.90625 29.730469 L 7.7480469 29.679688 C 7.5722969 29.569438 7.5395312 29.522203 7.578125 29.513672 z M 11.181641 29.695312 C 11.215391 29.707172 11.249688 29.738078 11.273438 29.798828 C 10.992188 29.794328 11.080391 29.659734 11.181641 29.695312 z M 7.5820312 29.988281 C 7.8017344 30.009516 8.6469375 30.471266 7.8984375 30.259766 L 7.7832031 30.214844 L 7.6523438 30.154297 C 7.5040938 30.022547 7.5087969 29.981203 7.5820312 29.988281 z M 9.4003906 31.205078 C 9.5019219 31.188906 10.335703 31.264563 9.6269531 31.257812 C 9.4137031 31.225313 9.3665469 31.210469 9.4003906 31.205078 z M 7.1835938 31.328125 C 7.243625 31.341541 7.3387656 31.370875 7.4785156 31.421875 C 8.3735156 31.974875 9.4053281 32.267359 10.361328 32.693359 C 11.201328 32.803359 12.087063 33.025656 12.914062 32.847656 C 13.604062 33.192656 14.319719 32.758313 15.011719 33.070312 C 13.482719 33.368312 11.909719 33.042078 10.386719 32.830078 C 9.4267187 32.709078 8.5693594 32.310641 7.6933594 31.931641 C 7.5663594 31.871641 7.4462187 31.796563 7.3242188 31.726562 C 6.7222187 31.392563 6.7968125 31.324344 7.3828125 31.652344 C 7.5898125 31.817344 9.058375 32.418484 8.359375 32.021484 C 8.095125 31.955859 6.763375 31.234213 7.1835938 31.328125 z M 12.75 31.59375 C 12.8185 31.63775 12.820859 31.781391 12.818359 31.962891 C 12.358359 32.470891 12.632656 31.75525 12.347656 32.03125 C 12.084656 32.24125 12.147063 31.906172 12.289062 31.826172 C 12.546563 31.605672 12.6815 31.54975 12.75 31.59375 z M 16.583984 31.755859 C 16.994609 31.791234 17.464328 31.886078 17.736328 31.892578 C 17.571328 32.239578 16.551516 31.920719 16.103516 32.011719 L 15.910156 32 L 15.791016 31.980469 C 15.822516 31.744469 16.173359 31.720484 16.583984 31.755859 z M 20.115234 31.867188 C 21.177234 31.866187 20.185266 32.021531 19.697266 32.019531 C 19.143266 31.889531 19.948234 31.893187 20.115234 31.867188 z M 13.71875 32.005859 C 13.80375 31.996234 13.832797 32.06325 13.591797 32.21875 L 13.503906 32.246094 C 13.491906 32.100094 13.63375 32.015484 13.71875 32.005859 z M 13.314453 32.068359 C 13.330078 32.092516 13.295156 32.161687 13.160156 32.304688 C 12.767156 32.330187 13.267578 31.995891 13.314453 32.068359 z M 9.4824219 32.177734 C 9.5783281 32.153641 10.611391 32.451578 10.744141 32.423828 C 11.797141 32.814828 10.115578 32.551031 9.7675781 32.332031 C 9.5233281 32.228781 9.4504531 32.185766 9.4824219 32.177734 z M 14.570312 32.228516 C 14.572594 32.25475 14.517781 32.316234 14.363281 32.427734 L 14.234375 32.511719 C 14.051375 32.384969 14.563469 32.149813 14.570312 32.228516 z"
     id="path1"
     style="fill:#f9f9f9;fill-opacity:1;stroke-width:0;stroke-dasharray:none" />
  <path
     style="fill:#f9f9f9;stroke:#ffffff;stroke-width:0;paint-order:markers fill stroke;fill-opacity:1;stroke-dasharray:none"
     d="m 42.121685,78.606881 c -0.265242,-0.09847 -0.468019,-0.402378 -0.468019,-0.70143 0,-0.323004 0.359396,-0.56845 0.99454,-0.67921 1.005481,-0.175343 1.634106,-0.763058 2.026938,-1.895029 0.178326,-0.513856 0.196151,-1.601927 0.196151,-11.973178 0,-11.331287 -0.0016,-11.411495 -0.244896,-11.934477 -0.317908,-0.683497 -0.965062,-1.300624 -1.852006,-1.766076 -0.391166,-0.205277 -0.803352,-0.452895 -0.915969,-0.550261 -0.243954,-0.210918 -0.266993,-0.712952 -0.04655,-1.014421 0.148085,-0.202518 0.236025,-0.207485 1.374805,-0.07765 2.082044,0.237383 7.897088,0.291465 12.975571,0.120678 5.468871,-0.183916 6.268876,-0.194211 6.380734,-0.08211 0.04489,0.04499 0.02252,0.413556 -0.04971,0.819032 -0.07224,0.405477 -0.188392,1.632316 -0.258124,2.72631 -0.157975,2.478387 -0.161397,2.495766 -0.508511,2.582886 -0.554161,0.139085 -0.753435,-0.04412 -1.357673,-1.248206 -1.019279,-2.031151 -1.636772,-2.485352 -3.654853,-2.688352 -0.657461,-0.06613 -2.60814,-0.104525 -4.33484,-0.08531 -2.950692,0.03283 -3.149432,0.04859 -3.305382,0.262051 -0.137811,0.188636 -0.165927,1.185329 -0.165927,5.881994 v 5.654872 l 0.285296,0.129989 c 0.211595,0.09641 1.131637,0.08533 3.56154,-0.0429 3.60418,-0.190196 3.746948,-0.223943 4.053759,-0.958243 0.08731,-0.208956 0.220088,-0.744545 0.29507,-1.190198 0.178621,-1.061633 0.356041,-1.336801 0.861933,-1.336801 0.216622,0 0.509029,0.09326 0.649796,0.207247 l 0.255939,0.207247 -0.192796,1.226061 c -0.126129,0.8021 -0.214264,2.318458 -0.254879,4.385186 -0.06763,3.441401 -0.06985,3.451639 -0.748343,3.451639 -0.420658,0 -0.543092,-0.174899 -0.818732,-1.16958 -0.42947,-1.549794 -1.024388,-2.323668 -1.981344,-2.577342 -0.324346,-0.08598 -1.559861,-0.14594 -3.217629,-0.156154 l -2.691107,-0.01658 -0.03244,5.557722 c -0.01784,3.056747 -0.0047,5.672132 0.02922,5.811965 0.03391,0.139834 0.197861,0.416111 0.364332,0.613951 0.344714,0.40967 0.925342,0.607412 2.622511,0.893139 0.611349,0.102923 1.230012,0.2633 1.374805,0.356394 0.377947,0.242996 0.356163,0.799626 -0.04149,1.060178 -0.282185,0.184895 -0.544249,0.189227 -3.539391,0.05851 -2.941658,-0.128387 -6.145594,-0.06077 -7.200618,0.151976 -0.135405,0.0273 -0.32517,0.02032 -0.421699,-0.01551 z"
     id="path2"
     transform="scale(0.33333333)" />
  <path
     style="fill:#f9f9f9;stroke:#ffffff;stroke-width:0;paint-order:markers fill stroke;fill-opacity:1;stroke-dasharray:none"
     d="m 73.515888,73.439938 c 0.02246,-0.545216 0.133357,-0.656116 0.282761,-0.282762 0.135197,0.337851 0.11857,0.741517 -0.03695,0.897036 -0.155518,0.155519 -0.266134,-0.120905 -0.245812,-0.614274 z"
     id="path3"
     transform="scale(0.33333333)" />
  <path
     style="fill:#f9f9f9;stroke:#ffffff;stroke-width:0;paint-order:markers fill stroke;fill-opacity:1;stroke-dasharray:none"
     d="m 67.566158,78.418834 c -0.186354,-0.48563 0.06559,-0.831461 0.894069,-1.227263 1.576036,-0.752938 1.450681,0.391312 1.450681,-13.242028 V 51.948538 l -0.422129,-0.820235 c -0.358537,-0.696669 -0.589117,-0.906764 -1.530594,-1.394616 -1.56926,-0.813154 -1.48335,-1.317974 0.339284,-1.993678 0.523358,-0.194024 1.663764,-0.757853 2.534234,-1.252952 1.738341,-0.98872 2.407204,-1.124543 2.59953,-0.527874 0.066,0.204769 0.09911,5.937444 0.07357,12.739278 l -0.04643,12.366972 -0.415117,0.104188 c -0.228314,0.0573 -0.616957,0.368813 -0.863651,0.692247 -0.375847,0.492758 -0.448535,0.753682 -0.448535,1.610074 0,0.581056 0.104566,1.217398 0.242353,1.474857 0.27589,0.515504 0.958041,0.921015 1.549335,0.921015 0.220896,0 0.503824,0.123793 0.628728,0.275097 0.304759,0.369171 1.382052,0.823549 2.295468,0.968177 0.905162,0.143322 1.158287,0.329195 1.158287,0.85055 0,0.219234 -0.09308,0.428082 -0.206837,0.464106 -0.11376,0.03603 -2.353982,0.09761 -4.97827,0.136854 -3.81364,0.05703 -4.788003,0.02817 -4.85398,-0.143764 z"
     id="path4"
     transform="scale(0.33333333)" />
  <path
     style="fill:#f9f9f9;stroke:#ffffff;stroke-width:0;paint-order:markers fill stroke;fill-opacity:1;stroke-dasharray:none"
     d=""
     id="path5"
     transform="scale(0.33333333)" />
  <path
     style="fill:#f9f9f9;stroke:#ffffff;stroke-width:0;paint-order:markers fill stroke;fill-opacity:1;stroke-dasharray:none"
     d="m 72.847994,74.342103 c -0.499453,-0.240877 -0.535513,-1.353753 -0.05225,-1.612389 0.582208,-0.311588 0.672757,-0.201016 0.672757,0.821526 0,1.04439 -0.02603,1.077569 -0.620511,0.790863 z"
     id="path6"
     transform="scale(0.33333333)" />
  <path
     style="fill:#f9f9f9;stroke:#ffffff;stroke-width:0;paint-order:markers fill stroke;fill-opacity:1;stroke-dasharray:none"
     d="m 84.169809,78.618698 c -3.161813,-0.887423 -4.209416,-4.898583 -1.798413,-6.885935 1.373772,-1.132379 4.094134,-2.201872 7.378687,-2.900885 0.916793,-0.19511 1.428127,-0.399611 1.714012,-0.685496 0.392075,-0.392074 0.404889,-0.474088 0.339959,-2.175803 -0.08043,-2.107887 -0.40088,-2.896785 -1.399204,-3.444586 -1.498123,-0.822051 -2.813701,-0.594285 -3.54418,0.613604 -0.90045,1.488946 -1.355206,2.007959 -2.026339,2.312659 -1.354988,0.615176 -2.474045,0.21364 -2.70129,-0.969266 -0.09514,-0.495239 -0.02908,-0.619575 0.703423,-1.324041 0.938108,-0.902197 2.569476,-1.800565 4.448753,-2.449856 1.120812,-0.38724 1.602806,-0.458952 3.143922,-0.467757 1.589377,-0.0091 1.920396,0.03896 2.610646,0.378846 0.434763,0.214085 0.980885,0.63888 1.213603,0.943989 0.852521,1.117713 0.9139,1.660811 0.868523,7.684859 -0.04434,5.886611 -0.0087,6.197256 0.731134,6.369511 0.202142,0.04707 0.925991,0.06656 1.608553,0.04332 1.224971,-0.04171 1.241667,-0.0367 1.290861,0.386687 0.06179,0.531791 -0.590409,1.06503 -2.311365,1.889777 -2.030389,0.973037 -2.87091,0.928031 -3.731136,-0.199783 -0.728004,-0.954462 -0.876715,-0.968916 -2.490882,-0.242095 -2.647066,1.191909 -4.545946,1.544187 -6.049267,1.122249 z m 6.311784,-2.588165 c 1.296603,-0.557783 1.354038,-0.698201 1.354038,-3.310365 0,-1.526779 -0.06362,-2.310288 -0.198563,-2.445226 -0.284677,-0.284677 -1.052912,-0.245831 -2.510433,0.12694 -3.219346,0.82337 -4.470077,2.035989 -4.169229,4.042185 0.135657,0.904625 0.73733,1.686823 1.472815,1.914715 0.877459,0.271883 3.069101,0.09431 4.051372,-0.328249 z"
     id="path7"
     transform="scale(0.33333333)" />
  <path
     style="fill:#f9f9f9;stroke:#ffffff;stroke-width:0;paint-order:markers fill stroke;fill-opacity:1;stroke-dasharray:none"
     d="m 106.89337,78.670897 c -1.60842,-0.199453 -3.81909,-0.759811 -4.09804,-1.038765 -0.15036,-0.150362 -0.2293,-0.793898 -0.25277,-2.060689 -0.0282,-1.519711 0.0135,-1.889738 0.23797,-2.11459 0.3658,-0.366386 0.64603,-0.186309 1.41647,0.910254 1.20499,1.715058 2.8779,2.496182 5.33254,2.489891 2.34796,-0.006 3.32217,-0.694527 3.31964,-2.346091 -0.001,-0.771819 -0.32983,-1.396322 -1.02089,-1.93991 -0.23959,-0.188458 -1.7786,-1.01351 -3.42002,-1.833449 -3.40646,-1.701624 -4.40778,-2.497741 -4.87827,-3.878548 -0.50944,-1.495109 -0.254,-3.3286 0.62413,-4.479884 0.60514,-0.793383 1.78336,-1.562617 2.97103,-1.939715 1.72319,-0.547136 6.09077,-0.378642 7.37303,0.284438 0.37245,0.192603 0.46602,0.440477 0.81218,2.151514 0.21966,1.085729 0.3284,1.995161 0.24796,2.073675 -0.0788,0.07691 -0.33482,0.187096 -0.56893,0.244848 -0.37472,0.09244 -0.5331,-0.02802 -1.32375,-1.006876 -1.23471,-1.5286 -2.24994,-2.085569 -3.98454,-2.185984 -2.15091,-0.124513 -3.25075,0.468586 -3.40489,1.836116 -0.1701,1.509147 0.47424,2.104232 4.0562,3.746153 2.59321,1.188688 4.00032,2.004871 4.61951,2.679515 1.50833,1.643419 1.46713,4.845806 -0.0835,6.492486 -1.52691,1.621464 -4.53003,2.342816 -7.97503,1.915611 z"
     id="path8"
     transform="scale(0.33333333)" />
  <path
     style="fill:#f9f9f9;stroke:#ffffff;stroke-width:0;paint-order:markers fill stroke;fill-opacity:1;stroke-dasharray:none"
     d="m 136.55283,78.728663 c -0.6728,-0.128218 -4.12736,-4.376062 -6.01869,-7.400776 -0.56385,-0.901749 -1.02383,-1.457044 -1.25836,-1.519135 -0.42819,-0.113355 -1.55673,0.49144 -2.19512,1.17638 -0.39533,0.424155 -0.41333,0.53309 -0.40587,2.456423 0.0113,2.926111 0.16776,3.139408 2.62104,3.574433 1.12942,0.200273 1.42516,0.395431 1.42516,0.940456 0,0.462044 0.0709,0.448787 -2.15111,0.402298 -0.95558,-0.01999 -2.99141,0.05066 -4.52407,0.157019 -3.30294,0.229199 -3.58394,0.189026 -3.58394,-0.512381 0,-0.458563 0.09,-0.544468 0.96642,-0.922629 1.71908,-0.741746 1.59072,0.254388 1.64888,-12.795809 0.0278,-6.234068 0.004,-11.721833 -0.0522,-12.195034 -0.14521,-1.215928 -0.63131,-1.858648 -1.85222,-2.449026 -0.56462,-0.273025 -1.11137,-0.581492 -1.21499,-0.685481 -0.35021,-0.351473 0.13003,-0.834141 1.28555,-1.292043 0.61682,-0.24443 1.8337,-0.848863 2.70417,-1.343185 1.59544,-0.906021 2.17449,-1.071568 2.4202,-0.691929 0.0736,0.11376 0.17109,5.270207 0.2166,11.45877 l 0.0827,11.251933 0.38141,0.05407 c 0.22779,0.03229 0.62764,-0.133145 0.99281,-0.410782 0.96671,-0.734969 4.37064,-3.607949 4.87226,-4.112275 0.84721,-0.85177 0.47326,-1.565152 -0.95145,-1.815092 -0.81222,-0.14249 -1.07555,-0.345972 -1.07555,-0.831113 0,-0.603818 0.30396,-0.702598 1.73743,-0.564629 0.72807,0.07007 2.9284,0.132707 4.88963,0.139182 3.75169,0.01239 3.96299,0.0534 3.96299,0.769219 0,0.538446 -0.28447,0.685078 -1.71461,0.883789 -1.44968,0.201426 -2.8002,0.694827 -4.17897,1.526745 -1.0356,0.62486 -3.53818,2.876342 -3.53818,3.183179 0,0.701329 3.31746,5.239224 5.29173,7.238466 1.57634,1.596275 2.70511,2.268165 4.02883,2.398131 1.52013,0.149249 1.60043,0.185576 1.60043,0.724012 0,0.795072 -0.44147,0.942474 -3.19951,1.068275 -1.3502,0.06159 -2.54158,0.133958 -2.64752,0.160827 -0.10594,0.02687 -0.36058,0.01684 -0.56588,-0.02229 z"
     id="path9"
     transform="scale(0.33333333)" />
  <path
     style="fill:#f9f9f9;stroke:#ffffff;stroke-width:0;paint-order:markers fill stroke;fill-opacity:1;stroke-dasharray:none"
     d="M 37.72707,99.777176 C 32.533322,99.305366 30.158533,98.878223 26.977901,97.843768 24.419069,97.011545 23.097259,96.410826 20.74432,95.010819 19.042399,93.998168 16.027931,91.717347 14.498894,90.285375 13.71432,89.550605 11.151489,86.354637 9.9037088,84.554968 8.5454465,82.595951 7.5355615,80.866848 6.2846367,78.358469 4.5296816,74.839401 3.6985258,72.528571 2.5617981,68.008008 1.5740844,64.080046 1.0281226,62.340687 0.43231056,61.223754 0.06262576,60.530728 0.09079959,59.123096 0.49001777,58.340564 1.1418992,57.06277 2.3180574,56.225699 4.3415986,55.599395 c 1.0756329,-0.332918 1.5884766,-0.746221 0.9259421,-0.746221 -0.2194213,0 -0.6910509,0.148923 -1.0480658,0.330939 C 3.0634073,55.77351 2.4792251,55.546216 2.716844,54.599467 2.8289182,54.152928 3.6881479,53.53106 4.1944677,53.530036 4.7608763,53.528891 5.6385736,52.992195 5.8996353,52.487357 6.18042,51.94438 6.1160452,50.686746 5.8021105,50.582101 5.4472735,50.463822 5.6425802,50.060009 6.3128407,49.526123 8.2201512,48.006883 8.2997158,47.740476 7.1979278,46.562575 6.5002618,45.816714 6.3715708,45.53753 6.4430805,44.924998 c 0.038588,-0.330529 0.6404827,-0.830637 0.9800157,-0.814285 0.1769964,0.0085 0.1981641,0.04247 0.060922,0.09769 -0.2452549,0.09868 -0.6997644,0.923042 -0.6997644,1.269195 0,0.13095 0.1524985,0.413877 0.3388856,0.628728 L 7.4620249,46.496959 7.3581964,45.959183 7.2543677,45.421407 h 1.0059652 c 0.8583939,0 1.005965,-0.04369 1.005965,-0.297846 0,-0.163814 -0.088112,-0.385957 -0.1958056,-0.493651 -0.1076933,-0.107693 -0.1385143,-0.252892 -0.068491,-0.322665 0.1790087,-0.17837 0.7607058,0.583744 0.7607058,0.996643 0,0.188225 -0.085355,0.578272 -0.1896774,0.866771 -0.2286817,0.632408 -0.085621,1.317444 0.3123513,1.495669 0.16005,0.07168 0.982441,0.135735 1.827537,0.142354 1.744138,0.01366 1.920168,0.125471 1.761744,1.119027 -0.09252,0.580251 -0.06477,0.627211 0.558728,0.945294 0.360848,0.18409 1.167097,0.415597 1.791666,0.51446 1.543461,0.244312 2.279543,0.618411 2.345689,1.19215 0.04228,0.366734 0.157279,0.469289 0.624511,0.556942 0.314978,0.05909 1.03627,0.408625 1.602872,0.776744 0.566603,0.368119 1.439723,0.79379 1.940269,0.945935 l 0.910083,0.276629 -2.39931,0.09582 c -2.045358,0.08169 -4.302542,0.368147 -5.749486,0.729665 -0.360141,0.08998 -0.36404,0.07814 -0.125122,-0.379958 0.135632,-0.260059 0.247062,-0.577451 0.247622,-0.705317 8.1e-4,-0.184709 0.0632,-0.176208 0.303621,0.04137 0.313528,0.283739 0.692963,0.366502 0.686537,0.149748 -0.002,-0.06826 -0.145641,-0.308861 -0.319149,-0.534677 -0.211889,-0.275767 -0.285384,-0.560999 -0.223841,-0.868715 0.08581,-0.42906 0.05573,-0.458141 -0.473986,-0.458141 -0.311087,0 -1.195315,0.180004 -1.964951,0.400008 -0.769636,0.220006 -2.367335,0.640942 -3.5504427,0.935416 -2.1840788,0.543614 -3.3233001,0.973946 -2.9298933,1.106745 0.1177162,0.03974 0.8250988,-0.09457 1.5719612,-0.298455 1.7754358,-0.484677 3.0311968,-0.491726 3.8281898,-0.02149 l 0.605438,0.357216 -0.108404,-0.577843 c -0.148056,-0.789202 0.128618,-0.740259 0.708899,0.125403 0.299117,0.446221 0.620615,0.724867 0.879653,0.762402 0.430115,0.06233 -4.160836,1.493268 -5.9129767,1.843003 -2.37929,0.474915 -2.5739153,0.605844 -1.6950621,1.140307 0.3909566,0.237755 0.4471608,0.329702 0.2482044,0.406048 -0.3805309,0.146024 -0.3126225,0.421863 0.156477,0.635599 0.8413653,0.383352 0.2324114,0.739475 -0.7573818,0.442926 -0.9339566,-0.27982 -1.3656018,-0.737742 -1.2482933,-1.324284 0.089754,-0.448772 0.068718,-0.470957 -0.3559582,-0.375404 -2.8642211,0.644453 -3.6297587,1.230396 -3.4691525,2.65529 0.085091,0.754926 0.524947,1.546213 0.9355871,1.683093 0.1607495,0.05358 0.1850957,-0.06121 0.097535,-0.45987 -0.2894009,-1.317633 0.320323,-2.656752 1.2051461,-2.646827 0.3846245,0.0043 0.4073018,0.02908 0.1590237,0.173692 -0.1690216,0.09845 -0.2895718,0.365771 -0.2895718,0.642137 0,1.132604 2.4645581,2.117833 2.6169376,1.046146 0.039727,-0.279399 0.1974855,-0.391301 0.6618784,-0.46949 0.3353458,-0.05646 0.7501664,-0.141622 0.9218232,-0.189245 0.2648947,-0.07349 0.2958443,-0.02181 0.2046111,0.341695 -0.102288,0.407549 -0.081347,0.423626 0.4325096,0.332043 0.2970012,-0.05293 1.4949583,-0.542406 2.6621272,-1.087717 1.949581,-0.91086 2.252292,-1.002811 3.723066,-1.130915 2.236596,-0.194808 3.665516,-0.435131 5.489477,-0.923249 2.554738,-0.683685 3.519991,-1.435052 3.519991,-2.740014 0,-0.348295 0.06379,-0.633264 0.141762,-0.633264 0.257355,0 3.081468,1.174371 3.39467,1.41163 0.287669,0.217917 0.278358,0.232872 -0.148067,0.237804 -0.601551,0.007 -0.57475,0.230131 0.08273,0.688938 0.295777,0.206399 0.597322,0.472084 0.670101,0.590411 0.221583,0.360263 0.446485,0.241075 0.452683,-0.239901 l 0.0059,-0.455042 0.227823,0.411598 c 0.125304,0.226378 0.192731,0.468378 0.149841,0.537776 -0.166676,0.269686 -1.499626,0.104105 -2.980402,-0.37023 -1.791069,-0.573731 -2.202023,-0.605284 -2.693852,-0.206837 -0.39362,0.318885 -0.691474,1.355295 -0.579626,2.016864 0.03941,0.233097 0.1856,2.136423 0.324871,4.229613 0.427628,6.427062 0.978513,9.773559 2.174492,13.20952 1.022859,2.938596 2.121968,4.702226 5.138823,8.245751 2.786389,3.272827 4.994553,5.036556 8.668254,6.923607 2.275247,1.168715 7.341183,2.78972 8.777266,2.808562 0.150121,0.002 0.90447,-0.623691 1.676329,-1.390356 1.526568,-1.516293 2.388139,-1.964179 3.073145,-1.597575 0.48202,0.257969 0.448616,0.502287 -0.182435,1.334417 -1.428638,1.883858 -1.391679,1.991231 0.682287,1.982115 0.839045,-0.0037 1.762276,0.09855 2.239729,0.248028 1.064042,0.33312 1.384486,0.321141 2.132392,-0.07971 0.528642,-0.283333 0.678905,-0.302164 0.990367,-0.124102 0.248752,0.142211 0.98089,0.199255 2.270072,0.176869 2.300159,-0.03994 2.647514,0.10545 2.647514,1.10816 0,0.823198 -0.332365,1.016991 -2.399309,1.398961 -0.819075,0.151365 -1.787072,0.415178 -2.151105,0.586254 -0.512703,0.24094 -0.818729,0.281397 -1.357811,0.179506 -0.863003,-0.163118 -1.91463,0.004 -3.523542,0.559774 -0.682563,0.235801 -1.714029,0.463906 -2.29215,0.506896 -0.578119,0.04299 -1.918423,0.192759 -2.978453,0.332818 -2.767054,0.365598 -7.395174,0.435711 -10.44901,0.158296 z m 6.660152,-0.353625 c 0.341281,-0.05629 0.620511,-0.162054 0.620511,-0.235021 0,-0.273088 -0.81417,-0.380751 -3.226658,-0.426684 -5.503135,-0.10478 -6.864432,-0.176614 -8.68534,-0.458322 -1.045598,-0.161762 -2.125287,-0.399044 -2.39931,-0.527294 l -0.498222,-0.233182 0.496409,0.08732 c 1.253846,0.220558 2.564779,0.281785 2.564779,0.11979 0,-0.244286 -0.323343,-0.349333 -2.718505,-0.883184 -2.023505,-0.451014 -2.627588,-0.492792 -2.075322,-0.143528 1.060051,0.670397 -2.149746,-0.599521 -4.786528,-1.893732 -1.947115,-0.955705 -2.750144,-1.181456 -2.31235,-0.650064 0.204729,0.248502 0.182278,0.26449 -0.227944,0.162317 -0.794898,-0.197979 -0.498676,0.183829 0.673959,0.868684 1.3851,0.808943 4.761901,2.214889 6.620544,2.756494 1.39129,0.405419 6.885979,1.278559 9.790234,1.55573 1.568514,0.149692 4.988171,0.09459 6.163743,-0.09933 z m -1.018361,-2.221425 c 0.614451,-0.437529 0.627669,-0.723403 0.02647,-0.572511 -0.558405,0.140151 -0.86964,0.38594 -0.86964,0.686773 0,0.321853 0.28493,0.283241 0.843172,-0.114262 z m -3.627817,-0.428053 c 0.283201,-0.256294 0.41769,-0.718967 0.208988,-0.718967 -0.178059,0 -0.8169,0.381144 -0.929655,0.554648 -0.29278,0.450525 0.264106,0.577502 0.720667,0.164319 z m 1.2586,-0.149205 c 0.351055,-0.24589 0.510195,-0.735232 0.239106,-0.735232 -0.263909,0 -0.864166,0.523733 -0.864166,0.753996 0,0.306895 0.167286,0.301873 0.62506,-0.01876 z m -2.803933,-0.33728 c 0.296452,-0.207643 0.366057,-0.392903 0.326391,-0.868716 -0.06905,-0.828265 -0.636716,-0.898195 -1.498278,-0.184573 -0.860438,0.712691 -0.833662,1.454579 0.03571,0.989306 0.225395,-0.120627 0.327738,-0.09933 0.397602,0.08273 0.119976,0.312648 0.27091,0.308816 0.73858,-0.01875 z m 7.393843,-0.2335 c 0.730444,-0.277714 0.377755,-0.55747 -1.257343,-0.997336 -1.817078,-0.488821 -2.015671,-0.589266 -1.897711,-0.95984 0.07598,-0.238695 -0.03389,-0.268056 -0.819597,-0.219024 -1.147092,0.07158 -2.117131,-0.370048 -3.207265,-1.460181 -0.602101,-0.602101 -1.046274,-0.868376 -1.930929,-1.157559 -1.419613,-0.464057 -3.10629,-1.327126 -3.945606,-2.018963 -0.82014,-0.676028 -1.593969,-1.748623 -1.478551,-2.049399 0.05333,-0.13896 -0.268651,-0.626943 -0.783925,-1.188111 -0.480929,-0.523765 -1.309057,-1.62245 -1.840284,-2.441524 -1.187012,-1.8302 -2.296248,-3.091666 -2.540397,-2.88904 -0.112552,0.09341 -0.278005,-0.02607 -0.457965,-0.330717 -0.15496,-0.262331 -0.504424,-0.57553 -0.776583,-0.695999 -0.606329,-0.268386 -0.611147,-0.347946 -0.05246,-0.865993 0.347094,-0.321842 0.401451,-0.459511 0.252368,-0.639146 -0.236658,-0.285154 -1.235153,-3.728173 -1.592819,-5.492372 -0.146743,-0.723815 -0.342671,-1.362913 -0.435393,-1.420219 -0.113463,-0.07012 -0.108836,-0.261346 0.01415,-0.584831 0.153682,-0.40421 0.134967,-0.520431 -0.117688,-0.730884 -0.246331,-0.205185 -0.291619,-0.451368 -0.251501,-1.367166 0.02691,-0.614306 -0.01046,-1.11692 -0.08305,-1.11692 -0.07259,0 -0.131838,-0.899372 -0.131662,-1.998604 2.58e-4,-1.615699 -0.04903,-2.035747 -0.257234,-2.192473 -0.197705,-0.148817 -0.226603,-0.328449 -0.124354,-0.773011 0.200657,-0.872432 0.199981,-3.167291 -0.0011,-3.66754 -0.229804,-0.571765 -0.714989,-0.714801 -1.391535,-0.410234 -0.29813,0.134212 -0.91436,0.291389 -1.369402,0.349282 -1.139946,0.145031 -2.564778,0.561338 -2.564778,0.749377 0,0.08556 0.204768,0.266651 0.455041,0.402427 0.573058,0.310888 0.209339,0.32294 -0.892464,0.02957 -0.835686,-0.222512 -0.854348,-0.219481 -1.030638,0.167434 -0.191088,0.419392 -0.300583,0.448032 -1.593127,0.4167 -0.727043,-0.01762 -0.781645,0.0032 -0.450375,0.171484 0.492995,0.250492 0.401273,0.468311 -0.389837,0.925771 -0.472716,0.27335 -0.869771,0.365503 -1.461695,0.339246 -0.678381,-0.03009 -0.852927,0.02457 -1.056225,0.330749 -0.2215855,0.333726 -0.2042577,0.442525 0.192169,1.206621 0.239643,0.4619 0.435714,0.957392 0.435714,1.101093 0,0.462171 -0.5189,0.866473 -1.112076,0.866473 -0.7392409,0 -1.1432497,0.229849 -1.2663892,0.720476 -0.054977,0.219047 -0.2598657,0.440083 -0.4553077,0.491193 -0.302343,0.07906 -0.3393435,0.172953 -0.2480492,0.629425 0.1514875,0.757437 0.5784775,1.180249 1.0915656,1.080881 0.5344715,-0.103508 1.5658335,0.464299 1.8077455,0.995238 0.27588,0.60549 0.240223,2.536102 -0.04684,2.536102 -0.28549,0 -0.8229572,-1.095528 -0.6976593,-1.422049 0.050779,-0.132328 0.2524303,-0.299825 0.4481133,-0.372213 0.348654,-0.128975 0.345066,-0.143823 -0.178944,-0.740637 -0.2941011,-0.334963 -0.6669689,-0.609024 -0.8285946,-0.609024 -0.2389788,0 -1.4920179,1.285267 -1.4920179,1.530392 0,0.03751 0.3350759,0.308838 0.7446132,0.602945 0.7914045,0.568343 0.9220185,0.927115 0.4604079,1.264653 -0.255009,0.186467 -0.2223799,0.233648 0.3176202,0.459275 0.6549135,0.273641 0.8458022,0.546533 1.2813792,1.831858 0.322633,0.952043 0.78481,1.177308 1.355621,0.660732 0.268845,-0.243302 0.383395,-0.260024 0.648233,-0.09463 0.61609,0.384755 0.315309,-0.08856 -0.629767,-0.991014 -0.523298,-0.499698 -1.063142,-1.044819 -1.199655,-1.211383 -0.233373,-0.284745 -0.216204,-0.296503 0.287322,-0.196784 l 0.535525,0.106054 -0.03912,-1.012029 c -0.02888,-0.747085 0.02176,-1.033311 0.193417,-1.09332 0.188236,-0.06581 0.213245,0.08156 0.131284,0.773595 -0.173454,1.464547 0.206881,1.734792 1.152119,0.818631 0.613162,-0.5943 0.713527,-0.558495 1.462011,0.521567 0.249272,0.359699 0.409403,0.767324 0.356052,0.906355 -0.123078,0.320736 -0.714577,0.32227 -1.325911,0.0034 -0.260676,-0.135951 -0.502675,-0.247185 -0.537776,-0.247185 -0.178866,0 -0.01749,0.360605 0.364563,0.814652 0.333017,0.39577 0.369853,0.509105 0.165469,0.509105 -0.320689,0 -0.320431,-0.01261 -0.01471,0.719091 0.136512,0.32672 0.248204,0.633659 0.248204,0.682086 0,0.207389 -0.891674,0.06196 -1.489226,-0.24289 -1.317126,-0.671947 -1.836288,-0.316315 -1.199655,0.821782 0.227979,0.407551 0.725776,0.727169 2.34032,1.502636 1.127911,0.541736 2.151754,0.984974 2.275207,0.984974 0.294368,0 0.28574,-0.352136 -0.01848,-0.754354 -0.361987,-0.478591 -0.310975,-0.569403 0.319855,-0.569403 0.403971,0 0.625638,0.09776 0.750435,0.33094 0.251499,0.469928 0.452677,0.410331 0.580577,-0.171993 0.09254,-0.421323 0.168509,-0.485272 0.468188,-0.394102 0.552758,0.168163 0.906302,0.549841 1.117676,1.206614 0.219308,0.681434 0.445186,1.014177 0.688454,1.014177 0.169251,0 0.09387,-0.782835 -0.135435,-1.406492 -0.195075,-0.53056 1.028266,0.701336 1.265699,1.274551 0.176296,0.425618 0.160015,0.527987 -0.130111,0.818113 -0.182392,0.182393 -0.642239,0.373285 -1.021881,0.424207 l -0.690261,0.09258 0.482154,0.34997 c 0.265183,0.192484 0.732411,0.547875 1.038283,0.789759 0.305873,0.241883 0.867157,0.52252 1.247299,0.623636 1.0282,0.273497 1.932496,1.505375 1.648446,2.245597 -0.123457,0.321727 -0.558994,0.314231 -1.181326,-0.02033 -1.527516,-0.821183 -2.079177,-1.054852 -2.490352,-1.054852 -0.437986,0 -0.445037,0.01284 -0.172454,0.314041 0.156312,0.172724 1.452312,0.84482 2.879997,1.493547 1.427686,0.648727 2.707485,1.250883 2.843997,1.33812 0.432228,0.276217 -0.348888,0.195428 -0.902713,-0.09337 -0.637571,-0.332463 -1.91027,-0.512077 -1.91027,-0.269594 0,0.498348 2.770376,1.236261 3.224956,0.858994 0.374133,-0.310502 1.590115,0.480464 3.12381,2.031965 l 1.301943,1.317058 -1.09717,-0.06986 c -0.747401,-0.04759 -1.188513,-0.161205 -1.383698,-0.35639 -0.271724,-0.271724 -0.267343,-0.291544 0.0848,-0.383631 0.554178,-0.144922 0.449618,-0.333204 -0.249184,-0.448709 -0.77378,-0.127898 -1.530594,-0.13544 -1.530594,-0.01526 0,0.05002 0.116979,0.317164 0.259953,0.593646 0.366381,0.708504 1.423673,1.130364 3.13581,1.251192 l 1.408451,0.0994 -0.241828,0.369075 c -0.577414,0.881246 0.286468,2.012004 1.371373,1.795024 0.411711,-0.08234 0.552569,-0.0021 1.02262,0.582858 0.587138,0.730613 0.87841,0.81815 1.432039,0.430373 0.271603,-0.190238 0.371085,-0.19987 0.427237,-0.04137 0.05285,0.149174 0.288773,0.09161 0.848644,-0.20706 1.115123,-0.594879 2.135579,-0.533178 3.998884,0.241784 0.812507,0.337927 1.775132,0.692745 2.139165,0.788484 0.364033,0.09574 0.959724,0.269523 1.323757,0.386186 0.813807,0.260803 2.063927,0.294652 2.650191,0.07175 z m 7.371598,-0.0048 c 0.581804,-0.311373 0.336942,-0.435463 -1.242234,-0.629533 -2.860201,-0.351497 -4.394611,-0.216538 -4.394611,0.386529 0,0.182096 0.33042,0.248527 1.447859,0.291091 3.233978,0.123185 3.882877,0.115738 4.188986,-0.04809 z m 8.407388,-0.0976 c 0.986656,-0.197331 0.509395,-0.392991 -0.9586,-0.392991 -1.534559,0 -2.061454,0.09629 -1.905719,0.348277 0.104494,0.169076 2.087717,0.200033 2.864319,0.04471 z M 29.784529,93.738532 c 0,-0.09101 -0.390922,-0.160236 -0.868715,-0.153839 -0.638005,0.0085 -0.780827,0.0494 -0.537777,0.153839 0.463345,0.199106 1.406492,0.199106 1.406492,0 z m -10.590055,-1.41737 c 0,-0.142496 -0.07583,-0.400774 -0.168512,-0.573953 -0.180117,-0.33655 -1.443483,-1.142293 -1.831661,-1.168186 -0.128517,-0.0086 -0.522279,-0.343329 -0.875026,-0.743905 -0.53299,-0.605254 -0.606455,-0.770376 -0.434781,-0.977232 0.177498,-0.213871 0.12119,-0.248912 -0.399975,-0.248912 -0.562632,0 -0.650972,-0.07176 -1.219916,-0.990996 -0.351562,-0.568012 -0.731539,-0.991774 -0.890237,-0.992818 -0.48543,-0.0032 -1.229309,-0.7844 -1.449862,-1.522615 -0.316018,-1.057747 -0.77446,-1.880037 -1.261937,-2.263486 C 10.424345,82.651674 10.103456,82.251256 9.9494812,81.949242 9.795506,81.647229 9.2468898,80.877039 8.7303341,80.237708 7.9956739,79.328434 6.4533146,76.517276 6.4533146,76.087533 c 0,-0.04305 0.1975208,0.0771 0.438935,0.266997 0.5429575,0.42709 0.6684215,0.338327 0.3052432,-0.215953 C 6.713232,75.399502 5.9358822,73.163452 5.8804722,72.35016 5.848731,71.884274 5.5864515,71.056595 5.2381434,70.323158 4.5934381,68.965592 4.190028,68.674655 4.3797241,69.704071 l 0.114345,0.620511 -0.3842433,-0.40844 c -0.6664617,-0.70843 -0.567869,0.0088 0.2442812,1.777058 0.9599904,2.090147 1.6027988,3.538061 1.6027988,3.610273 0,0.03165 -0.111692,0.01469 -0.2482044,-0.0377 -0.3540001,-0.135844 -0.3140969,0.08096 0.2675124,1.453428 0.6490166,1.531541 1.4451131,2.900588 3.3530397,5.766229 0.8299535,1.24656 1.9107635,2.919522 2.4017995,3.717692 0.865345,1.406599 1.842519,2.480078 4.298763,4.722424 1.467895,1.340066 3.164658,2.088338 3.164658,1.395614 z m 5.420055,-1.436981 c -0.09609,-0.292188 -1.293102,-0.945474 -1.738356,-0.948728 -0.79617,-0.0058 -0.278557,0.568518 0.822104,0.9122 0.907725,0.283438 0.998642,0.287062 0.916252,0.03653 z M 33.7558,89.188117 c -0.113296,-0.136512 -0.271336,-0.248204 -0.3512,-0.248204 -0.07987,0 -0.145209,0.111692 -0.145209,0.248204 0,0.142665 0.149334,0.248205 0.351199,0.248205 0.293417,0 0.31731,-0.04084 0.14521,-0.248205 z m -9.431768,-0.06905 c 0,-0.207064 -1.466575,-0.753486 -1.617017,-0.602475 -0.202138,0.202899 0.630421,0.754258 1.138939,0.754258 0.262943,0 0.478078,-0.0683 0.478078,-0.151783 z M 23.827623,88.03298 c 0,-0.134778 -0.20104,-0.295508 -0.446758,-0.357181 -0.245716,-0.06167 -0.848968,-0.323703 -1.340558,-0.582295 -1.412676,-0.743111 -1.857297,-0.565898 -0.743096,0.296174 1.045716,0.809083 2.530412,1.186534 2.530412,0.643302 z m -3.342747,-0.02681 c 0.693245,-0.185686 0.327558,-0.604171 -0.960205,-1.098839 -1.410804,-0.541932 -2.866791,-0.762808 -3.052079,-0.463005 -0.148558,0.240373 0.326501,0.992275 0.704521,1.115081 0.153962,0.05002 0.503314,0.193244 0.776339,0.318279 0.515986,0.236303 1.871953,0.305126 2.531424,0.128484 z m -1.621341,-2.846418 c 0,-0.0769 -0.148923,-0.274597 -0.330939,-0.43932 -0.182017,-0.164723 -0.330939,-0.472392 -0.330939,-0.683709 0,-0.227236 -0.169016,-0.494957 -0.413674,-0.655264 -0.227521,-0.149077 -0.413674,-0.407198 -0.413674,-0.573602 0,-0.166405 -0.229184,-0.437072 -0.509299,-0.601481 l -0.509299,-0.298927 0.550666,-0.09325 0.550666,-0.09325 -0.455041,-0.222879 c -0.580747,-0.284451 -0.572843,-0.411753 0.04137,-0.666168 0.273025,-0.11309 0.496409,-0.267893 0.496409,-0.344008 0,-0.147033 -2.082378,-0.814279 -2.541251,-0.814279 -0.149453,0 -0.271732,0.109356 -0.271732,0.243012 0,0.148028 -0.09701,0.205783 -0.248205,0.147766 -0.169978,-0.06523 -0.248204,0.0098 -0.248204,0.237906 0,0.251686 -0.08092,0.311989 -0.330939,0.246609 -0.452504,-0.118332 -0.415093,0.09431 0.113693,0.646246 0.399997,0.417508 0.412455,0.464543 0.124102,0.468548 -0.26029,0.0036 -0.211687,0.09607 0.258614,0.491957 0.424845,0.357623 0.501994,0.488693 0.289571,0.491958 -0.719971,0.01107 -0.133698,0.532383 1.737431,1.54493 1.976287,1.06945 2.440677,1.253484 2.440677,0.967211 z M 6.730824,66.667552 C 6.786733,66.521854 6.728554,66.336841 6.6015286,66.256411 6.2898268,66.059042 5.460497,66.065497 5.460497,66.265311 c 0,0.154507 0.7749349,0.646988 1.0393783,0.660538 0.071112,0.0036 0.1750394,-0.112582 0.2309487,-0.258278 z M 6.5889254,63.8299 c 0.045081,-0.317422 -0.022766,-0.372306 -0.4602347,-0.372306 -0.5646036,0 -0.8713537,0.429369 -0.4854684,0.679526 0.3931705,0.254881 0.8887361,0.09389 0.9457031,-0.30722 z m 2.815439,0.02539 C 9.8953715,63.511376 9.8210184,62.93102 9.2662979,62.777625 9.0387772,62.71471 8.5299582,62.655811 8.135589,62.64674 7.2765297,62.62698 7.2676586,62.919521 8.118,63.226769 c 0.5517457,0.199357 0.5552361,0.206032 0.114113,0.218236 -0.5169909,0.0143 -0.5943151,0.245964 -0.1654696,0.495743 0.4226145,0.246151 0.9086095,0.215104 1.3377211,-0.08546 z M 13.128772,51.900792 c -0.02207,-0.468461 0.02223,-0.540445 0.289572,-0.470532 0.441415,0.115432 0.402397,-0.288467 -0.05667,-0.586661 -0.204769,-0.133009 -0.781844,-0.375803 -1.28239,-0.539541 -0.500545,-0.163738 -1.003159,-0.332057 -1.11692,-0.374042 -0.288901,-0.106624 -0.26679,0.686915 0.03543,1.271334 0.371531,0.718462 1.222432,1.360983 1.725114,1.302644 0.375742,-0.04361 0.428543,-0.12208 0.405872,-0.603202 z m -3.2833305,0.21313 c 0.6370585,-0.0261 1.2271125,-0.05336 1.3112335,-0.06059 0.08412,-0.0072 -0.02054,-0.197806 -0.232574,-0.423508 -0.427043,-0.454566 -0.531265,-0.449647 -2.2783141,0.107525 -1.0807859,0.344686 -1.4670865,0.770887 -0.4964088,0.547683 0.2957769,-0.06801 1.0590055,-0.145013 1.6960634,-0.17111 z m 1.8558795,-3.487478 c 0.03379,-0.1029 -0.12949,-0.235009 -0.362842,-0.293577 -0.448801,-0.112642 -1.079363,0.128789 -1.079363,0.413268 0,0.230428 1.36442,0.117193 1.442205,-0.119691 z"
     id="path10"
     transform="scale(0.33333333)" />
  <path
     style="fill:#f9f9f9;stroke:#ffffff;stroke-width:0;paint-order:markers fill stroke;fill-opacity:1;stroke-dasharray:none"
     d=""
     id="path11"
     transform="scale(0.33333333)" />
  <path
     style="fill:#f9f9f9;stroke:#ffffff;stroke-width:0;paint-order:markers fill stroke;fill-opacity:1;stroke-dasharray:none"
     d="m 15.350527,72.682524 c -0.28863,-0.444637 -0.957991,-2.203926 -0.946712,-2.488251 0.0044,-0.110346 0.228955,0.227523 0.499061,0.75082 0.270107,0.523298 0.569388,0.951451 0.66507,0.951451 0.184488,0 0.108914,-0.348012 -0.284001,-1.307796 -0.126805,-0.30975 -0.198854,-0.594884 -0.160108,-0.633629 0.03875,-0.03875 0.479942,0.426003 0.980437,1.032776 0.896038,1.086309 0.905139,1.108074 0.593603,1.41961 -0.174012,0.174013 -0.428078,0.316387 -0.56459,0.316387 -0.136513,0 -0.248205,0.07446 -0.248205,0.165469 0,0.288812 -0.284193,0.178848 -0.534555,-0.206837 z"
     id="path12"
     transform="scale(0.33333333)" />
  <path
     style="fill:#f9f9f9;stroke:#ffffff;stroke-width:0;paint-order:markers fill stroke;fill-opacity:1;stroke-dasharray:none"
     d=""
     id="path13"
     transform="scale(0.33333333)" />
  <path
     style="fill:#f9f9f9;stroke:#ffffff;stroke-width:0;paint-order:markers fill stroke;fill-opacity:1;stroke-dasharray:none"
     d="m 19.900552,72.686153 c -0.06471,-0.06946 -0.151289,-0.209085 -0.192394,-0.310278 -0.04111,-0.101193 -0.122485,-0.218634 -0.180843,-0.260981 -0.49345,-0.358066 -0.682991,-2.21323 -0.301498,-2.950957 0.07663,-0.148179 0.102696,-0.162661 0.170246,-0.09457 0.08083,0.08148 0.260723,0.690356 0.260723,0.882474 0,0.08301 0.04808,0.104713 0.231951,0.104713 0.317177,0 0.363602,0.105903 0.316284,0.721494 -0.04484,0.583327 -0.0071,0.777752 0.161333,0.831211 0.111749,0.03547 0.120743,0.06924 0.08925,0.335154 -0.03705,0.312823 -0.255214,0.813336 -0.369471,0.847639 -0.03736,0.01122 -0.120869,-0.03644 -0.185581,-0.105897 z"
     id="path14"
     transform="scale(0.33333333)" />
  <path
     style="fill:#f9f9f9;stroke:#ffffff;stroke-width:0;paint-order:markers fill stroke;fill-opacity:1;stroke-dasharray:none"
     d="m 20.304757,63.818416 c -0.266252,-0.338484 -0.295343,-0.971045 -0.0844,-1.835187 0.113306,-0.464164 0.40821,-1.106483 0.529358,-1.152972 0.232494,-0.08922 0.301353,0.400561 0.145001,1.031351 -0.175439,0.707798 -0.209032,1.020236 -0.126313,1.174798 0.05912,0.110466 0.08216,0.118215 0.14994,0.05043 0.04405,-0.04405 0.118602,-0.185331 0.165674,-0.313962 l 0.08559,-0.233874 0.0036,0.351014 c 0.0029,0.286782 -0.02844,0.406841 -0.171396,0.656099 -0.259604,0.452658 -0.485682,0.540978 -0.697023,0.272301 z"
     id="path15"
     transform="scale(0.33333333)" />
  <path
     style="fill:#f9f9f9;stroke:#ffffff;stroke-width:0;paint-order:markers fill stroke;fill-opacity:1;stroke-dasharray:none"
     d="m 13.689548,67.452092 c -0.273499,-0.112143 -0.655227,-0.245543 -0.848284,-0.296444 -0.193058,-0.0509 -0.434506,-0.155913 -0.536551,-0.233359 -0.195554,-0.148414 -0.545743,-0.703874 -0.545743,-0.865643 0,-0.332476 1.30146,0.332094 2.335362,1.192517 0.195661,0.16283 0.355746,0.321421 0.355746,0.352424 0,0.106122 -0.263389,0.05435 -0.76053,-0.149495 z"
     id="path16"
     transform="scale(0.33333333)" />
  <path
     style="fill:#f9f9f9;stroke:#ffffff;stroke-width:0;paint-order:markers fill stroke;fill-opacity:1;stroke-dasharray:none"
     d="m 11.313462,69.368254 c -0.03588,-0.02364 -0.08549,-0.108796 -0.110241,-0.189237 -0.106014,-0.344569 -0.613806,-0.870888 -1.06635,-1.105253 -0.141271,-0.07316 -0.2911173,-0.298803 -0.1984326,-0.298803 0.030613,0 0.2524626,0.13163 0.4930006,0.292512 0.461355,0.308573 0.625858,0.35862 0.624954,0.190132 -6.11e-4,-0.114047 -0.314375,-0.687443 -0.407748,-0.745151 -0.03285,-0.0203 -0.05972,-0.06389 -0.05972,-0.09688 0,-0.03298 0.09872,0.0175 0.219383,0.112187 0.120661,0.09468 0.318776,0.204462 0.440254,0.243952 0.267919,0.0871 0.543041,0.31004 0.658766,0.533828 0.172493,0.333564 0.06417,0.977357 -0.180229,1.071141 -0.126934,0.04871 -0.333283,0.0445 -0.413636,-0.0084 z"
     id="path17"
     transform="scale(0.33333333)" />
  <path
     style="fill:#f9f9f9;stroke:#ffffff;stroke-width:0;paint-order:markers fill stroke;fill-opacity:1;stroke-dasharray:none"
     d=""
     id="path18"
     transform="scale(0.33333333)" />
  <path
     style="fill:#f9f9f9;stroke:#ffffff;stroke-width:0;paint-order:markers fill stroke;fill-opacity:1;stroke-dasharray:none"
     d="m 21.825485,72.350303 c -0.0045,-0.273736 0.150956,-1.099813 0.233458,-1.240709 0.03937,-0.06723 0.05188,-0.05355 0.05352,0.0585 0.0012,0.08044 0.04112,0.220994 0.08876,0.312341 0.08185,0.15693 0.07699,0.180084 -0.08811,0.420057 -0.09611,0.139684 -0.176588,0.301881 -0.178849,0.360436 -0.0023,0.05855 -0.02674,0.159116 -0.05439,0.223468 -0.03884,0.09038 -0.05121,0.05986 -0.05439,-0.134096 z"
     id="path19"
     transform="scale(0.33333333)" />
  <path
     style="fill:#f9f9f9;stroke:#ffffff;stroke-width:0;paint-order:markers fill stroke;fill-opacity:1;stroke-dasharray:none"
     d="m 8.3658346,60.027036 c 0,-0.04533 -0.065815,-0.160628 -0.1462558,-0.256227 -0.097631,-0.116027 -0.1462559,-0.244911 -0.1462559,-0.387659 0,-0.250311 -0.1050617,-0.474375 -0.3139077,-0.669466 -0.1182881,-0.110498 -0.148452,-0.192765 -0.1444155,-0.393868 0.003,-0.14963 -0.03628,-0.317354 -0.095497,-0.40773 -0.055329,-0.08444 -0.078404,-0.173293 -0.051276,-0.197445 0.027128,-0.02415 0.4496609,-0.127444 0.9389626,-0.229538 0.6924933,-0.144492 2.8445117,-0.719333 3.6730837,-0.981145 0.101393,-0.03204 0.106443,-0.02465 0.03884,0.0568 -0.04274,0.0515 -0.06072,0.121108 -0.03997,0.154694 0.06572,0.106341 0.319145,0.06677 0.78162,-0.12206 0.517898,-0.211454 0.883815,-0.239321 1.186791,-0.09038 0.197007,0.09685 0.238754,0.09783 0.599344,0.01421 0.524476,-0.121634 0.797714,-0.242695 0.797714,-0.353436 0,-0.151092 -0.261106,-0.206216 -0.983723,-0.207684 l -0.683594,-0.0014 0.351014,-0.153942 c 0.193058,-0.08467 0.443155,-0.150461 0.555772,-0.146206 0.112617,0.0043 0.586486,-0.06948 1.053043,-0.163864 0.996986,-0.201683 2.206891,-0.378154 3.188377,-0.46504 0.386115,-0.03418 0.859984,-0.07678 1.053042,-0.09466 l 0.351014,-0.03252 -0.20645,0.142561 c -0.271954,0.187793 -0.564083,0.710907 -0.464205,0.831252 0.154518,0.186183 0.244056,0.100218 0.302738,-0.290655 0.0124,-0.08259 0.09485,-0.130458 0.309415,-0.179642 0.407309,-0.09337 0.672777,-0.243069 0.672777,-0.379395 0,-0.142169 0.135815,-0.164971 1.155421,-0.193989 l 0.775156,-0.02206 v 0.246562 c 0,0.906638 -0.966903,1.517073 -3.363885,2.123722 -1.664264,0.421206 -2.488567,0.559722 -4.745507,0.797435 -1.811467,0.190792 -2.242371,0.30055 -3.565983,0.908308 l -0.472177,0.216807 -0.06761,-0.152265 C 10.449368,58.474415 9.8467424,58.00507 9.4496915,58.00507 c -0.3536493,0 -0.5641135,0.187464 -0.6977812,0.621523 -0.035163,0.114184 -0.012541,0.126387 0.2791527,0.150576 0.2417547,0.02005 0.4171903,0.08661 0.7359897,0.279229 0.2302155,0.139098 0.3974293,0.272757 0.3715873,0.297019 -0.04623,0.0434 -0.868072,0.399418 -1.467072,0.635521 -0.2449246,0.09654 -0.3057334,0.104118 -0.3057334,0.0381 z m 2.9397424,-2.090004 c 0.346673,-0.179748 -0.256013,-0.698754 -0.821338,-0.7073 -0.208057,-0.0031 -0.288278,0.0246 -0.372728,0.128886 -0.05919,0.07309 -0.107611,0.168344 -0.107611,0.211672 0,0.0961 0.358917,0.39095 0.540729,0.444215 0.155055,0.04543 0.614045,-0.0013 0.760948,-0.07747 z"
     id="path20"
     transform="scale(0.33333333)" />
  <path
     style="fill:#f9f9f9;stroke:#ffffff;stroke-width:0;paint-order:markers fill stroke;fill-opacity:1;stroke-dasharray:none"
     d="m 10.599593,57.792415 c -0.08033,-0.03041 -0.325824,-0.206398 -0.337728,-0.242111 -0.0022,-0.0067 0.01134,-0.02909 0.03019,-0.04965 0.03222,-0.03514 0.03901,-0.03774 0.113063,-0.04333 0.203164,-0.01534 0.470513,0.07023 0.648497,0.207562 0.03228,0.02491 0.06718,0.05475 0.07755,0.0663 0.01824,0.02033 0.01824,0.02119 0,0.02679 -0.118565,0.0364 -0.466805,0.05896 -0.531579,0.03444 z"
     id="path21"
     transform="scale(0.33333333)" />
  <path
     style="fill:#f9f9f9;stroke:#ffffff;stroke-width:0;paint-order:markers fill stroke;fill-opacity:1;stroke-dasharray:none"
     d="M 10.351768,59.257518 C 10.315263,59.146906 10.019772,58.923406 9.6740317,58.7449 9.4497194,58.629087 9.2836433,58.575333 9.0878277,58.55516 l -0.069881,-0.0072 0.038855,-0.0732 c 0.052574,-0.09904 0.1385136,-0.184569 0.2137389,-0.212715 0.084455,-0.0316 0.1821512,-0.03793 0.2693361,-0.01745 0.2618552,0.06151 0.6184733,0.335317 0.8158213,0.626382 0.04844,0.07144 0.179061,0.337974 0.17005,0.346985 -0.0022,0.0022 -0.03948,0.02012 -0.08294,0.03993 l -0.07903,0.03601 z"
     id="path22"
     transform="scale(0.33333333)" />
  <path
     style="fill:#f9f9f9;stroke:#ffffff;stroke-width:0;paint-order:markers fill stroke;fill-opacity:1;stroke-dasharray:none"
     d="m 12.389537,56.482862 c 0,-0.0166 -0.0026,-0.03697 -0.0058,-0.04526 -0.01169,-0.03046 0.179704,-0.11351 0.507367,-0.22016 0.170641,-0.05554 0.342047,-0.109368 0.380902,-0.119615 0.108714,-0.02867 0.452983,-0.08401 0.462265,-0.07431 0.0045,0.0047 0.01464,0.0412 0.02245,0.08102 l 0.0142,0.07239 0.591219,0.0056 c 0.32517,0.0031 0.593793,0.0081 0.59694,0.01128 0.0156,0.0156 -0.512461,0.142619 -0.62529,0.150402 -0.0732,0.005 -0.08222,0.0032 -0.160299,-0.03306 -0.113182,-0.05255 -0.213177,-0.08687 -0.30347,-0.104154 -0.307034,-0.05879 -0.627664,-0.0068 -1.100234,0.17839 -0.164288,0.06438 -0.346136,0.127688 -0.366784,0.127688 -0.008,0 -0.01348,-0.01227 -0.01348,-0.03018 z"
     id="path23"
     transform="scale(0.33333333)" />
  <path
     style="fill:#f9f9f9;stroke:#ffffff;stroke-width:0;paint-order:markers fill stroke;fill-opacity:1;stroke-dasharray:none"
     d="m 12.472272,68.04842 c -0.01422,-0.0025 -0.07231,-0.01194 -0.129084,-0.02095 -0.05678,-0.009 -0.176633,-0.03446 -0.266347,-0.05658 l -0.163118,-0.0402 -0.281771,-0.281991 c -0.154974,-0.155094 -0.377345,-0.373303 -0.494157,-0.484908 -0.364111,-0.347878 -0.497579,-0.533436 -0.408146,-0.567439 0.144217,-0.05483 0.931257,0.361817 1.522789,0.806144 0.312378,0.234642 0.49436,0.420555 0.519119,0.530335 0.01835,0.08135 -0.0294,0.113359 -0.175183,0.117423 -0.05404,0.0015 -0.109882,6.81e-4 -0.124102,-0.0018 z"
     id="path24"
     transform="scale(0.33333333)" />
  <path
     style="fill:#f9f9f9;stroke:#ffffff;stroke-width:0;paint-order:markers fill stroke;fill-opacity:1;stroke-dasharray:none"
     d="m 14.560778,65.794693 c -0.304346,-0.07392 -1.030144,-0.509787 -1.414814,-0.849641 l -0.04506,-0.03982 0.02133,-0.03615 c 0.07296,-0.123667 0.07149,-0.394186 -0.0038,-0.692738 -0.0498,-0.197518 -0.175741,-0.533257 -0.304129,-0.810754 -0.02341,-0.0506 -0.04068,-0.09388 -0.03838,-0.09618 0.0023,-0.0023 0.127598,0.181716 0.278434,0.408932 0.301992,0.454917 0.273946,0.422642 0.489766,0.563613 0.05607,0.03662 0.211301,0.129481 0.344969,0.206357 0.320036,0.184059 0.434109,0.257099 0.507162,0.324733 0.10039,0.09294 0.102131,0.151923 0.0063,0.212432 -0.04905,0.03096 -0.168005,0.07259 -0.262645,0.0919 -0.03555,0.0073 -0.06464,0.01621 -0.06464,0.0199 0,0.0037 0.0797,0.08038 0.177112,0.170429 0.332321,0.307188 0.473708,0.493948 0.402712,0.531944 -0.02364,0.01265 -0.02124,0.01278 -0.0943,-0.005 z"
     id="path26"
     transform="scale(0.33333333)" />
  <path
     style="fill:#f9f9f9;stroke:#ffffff;stroke-width:0;paint-order:markers fill stroke;fill-opacity:1;stroke-dasharray:none"
     d="m 14.783675,66.677917 c -0.175093,-0.04179 -0.515165,-0.160868 -0.899741,-0.315039 -0.173972,-0.06974 -0.23604,-0.09952 -0.263717,-0.126514 -0.122915,-0.119885 -0.270096,-0.178618 -0.651537,-0.26 -0.24785,-0.05288 -0.386308,-0.09426 -0.480777,-0.143683 -0.07639,-0.03996 -0.202326,-0.149079 -0.188361,-0.163199 0.01711,-0.0173 0.269151,-0.01689 0.39019,6.34e-4 0.489884,0.07094 1.243369,0.354572 1.830226,0.688957 0.24345,0.138716 0.432461,0.278935 0.421361,0.312592 -0.0052,0.01584 -0.10149,0.01966 -0.157644,0.0063 z"
     id="path25"
     transform="scale(0.33333333)" />
</svg>
